<svg width="590" height="151" viewBox="0 0 590 151" fill="none" xmlns="http://www.w3.org/2000/svg">
<path d="M46.4633 138.358C46.6026 136.036 46.5563 135.27 46.2522 134.892C46.0214 134.604 45.8578 133.708 45.8511 132.691C45.841 131.151 45.6407 130.575 43.8887 127.062C42.0194 123.313 41.9524 123.108 42.2846 122.159C42.5941 121.274 42.5502 120.977 41.8729 119.364C41.1973 117.756 40.8934 117.405 39.084 116.144C35.5739 113.698 32.7528 111.204 28.0547 106.396C22.81 101.026 18.4554 95.1212 14.4173 87.9036C13.0151 85.3978 12.9053 85.2937 11.6667 85.287C10.7368 85.2821 9.6201 84.4445 9.6243 83.7538C9.62542 83.5537 8.4874 80.9651 7.09533 78.0023C3.48269 70.313 3.17374 68.6754 4.27843 63.0765C4.93413 59.7568 5.05737 59.4583 6.42479 57.8951C7.87652 56.2364 7.6488 55.7693 5.27108 55.5266C2.09454 55.2018 2.12703 55.2223 1.46853 53.1177C1.14474 52.0825 0.879775 50.9094 0.879775 50.5109C0.879775 49.19 2.33234 45.0098 4.32941 40.5832C5.41281 38.1809 6.80208 34.9049 7.41632 33.3031C9.60189 27.6031 12.6171 23.0455 15.0517 21.7627C16.025 21.25 17.9168 20.8644 23.5464 20.0306C26.68 19.5664 26.9008 19.3312 27.3509 15.9774C27.6128 14.0268 27.5867 13.7211 27.0921 12.8939C26.7352 12.2981 26.5425 11.4548 26.5425 10.4893C26.5425 9.13171 26.6162 8.96309 27.3887 8.55065C28.1354 8.1521 28.2349 7.94762 28.2349 6.81039C28.2349 4.08993 28.7662 2.57526 30.2448 1.09038C30.5979 0.73754 30.9407 0.37392 31.2727 0H11.9096C5.33243 0 0 5.50598 0 12.2979V137.702C0 144.493 5.33215 150 11.9096 150H47.3372C47.2176 149.728 46.9678 149.287 46.6779 148.851C45.8718 147.639 45.8808 148.064 46.4633 138.358Z" fill="#616161"/>
<path d="M48.0892 0.000488281H37.8336C37.9341 0.123987 38.0792 0.256742 38.2557 0.376192C39.5239 1.23403 41.4476 3.30055 41.7546 4.13438C42.2165 5.38991 42.1126 7.05758 41.4605 8.8583C41.0857 9.89199 40.928 10.8169 41.0339 11.3618C41.2333 12.3918 40.2539 14.5751 39.094 15.6857C38.6758 16.086 38.0831 16.9178 37.777 17.5345C37.4708 18.1508 36.7109 19.2259 36.0891 19.9229C35.4673 20.6199 34.9999 21.413 35.052 21.6852C35.1035 21.9576 35.8435 22.5682 36.6964 23.0422C37.5498 23.5162 38.8268 24.4464 39.5351 25.1093C40.2429 25.7722 41.6722 26.9349 42.7111 27.6929C46.4439 30.4177 48.2351 35.0769 48.2536 42.1102C48.2617 45.2269 49.7339 52.5319 50.7885 54.6892C52.2329 57.6439 52.7558 59.2729 53.2079 62.2215C53.7883 66.0107 53.8059 66.0535 54.9728 66.5567C56.0878 67.038 58.9762 69.4591 58.9762 69.9129C58.9762 70.0691 59.2619 70.6099 59.6106 71.1152L59.9999 71.6783V12.2981C59.9988 5.50618 54.6666 0.000488281 48.0892 0.000488281ZM59.8212 82.3475C59.8212 82.495 59.1932 83.3248 58.4261 84.1919C53.0751 90.2367 43.9175 88.8901 40.5558 81.5629C39.7424 79.7893 39.6575 79.3439 39.6575 76.8384C39.6575 74.4462 39.76 73.8463 40.4132 72.4066C41.4577 70.1055 43.4514 67.9976 45.6308 66.8893C46.6223 66.3855 47.4923 65.8759 47.5629 65.7567C47.634 65.6378 46.7391 63.5519 45.5737 61.1207C42.8895 55.5199 42.5716 54.5183 41.3538 47.8282C40.8028 44.8044 40.2956 42.1669 40.2253 41.9665C39.9998 41.3218 39.2119 41.5731 37.2633 42.9105L35.357 44.219L33.6294 48.7375C32.6796 51.2223 31.9017 53.6249 31.9017 54.0758C31.9017 54.5834 32.1813 55.1653 32.6336 55.602C33.7627 56.6915 34.0674 57.4915 35.981 64.3939C37.391 69.4785 37.7053 70.9639 37.4806 71.4744C37.2647 71.9626 37.4047 73.0342 38.054 75.8622C39.0086 80.0236 39.3646 82.2289 39.8096 86.7388C40.2609 91.317 40.7381 92.7674 43.3069 97.3679C45.0146 100.425 45.5389 102.268 46.738 109.427C47.2881 112.711 47.8436 115.603 47.9727 115.851C48.1021 116.1 48.6609 117 49.2149 117.85C50.738 120.188 50.968 121.263 50.4204 123.513C50.17 124.541 49.8871 126.089 49.7913 126.954C49.5989 128.684 50.2056 132.876 50.8943 134.579C51.1271 135.154 51.2534 135.875 51.1758 136.183C51.0977 136.491 51.4237 138.029 51.8993 139.601C53.3874 144.517 53.3216 146.602 51.6077 148.837C51.3008 149.238 51.1358 149.465 51.0375 149.619C56.1887 148.264 59.9988 143.443 59.9988 137.701V82.1002C59.8954 82.1399 59.8212 82.235 59.8212 82.3475Z" fill="#616161"/>
<path d="M4.23767 122.318H9.0522L11.8296 134.996H11.8761V122.318H15.9036V142.891H11.1818L8.31164 130.184H8.26514V142.891H4.23767V122.318ZM17.988 122.318H24.4927C27.5712 122.318 29.0061 124.363 29.0061 127.446C29.0061 129.636 28.242 131.596 26.4138 132.056V132.114C28.5896 132.373 29.4694 134.678 29.4694 136.81C29.4694 140.383 28.0807 142.89 24.4927 142.89H17.988V122.318ZM22.2934 130.386H23.3353C24.2148 130.386 24.701 129.406 24.701 128.311C24.701 127.159 24.2148 126.179 23.3353 126.179H22.2934V130.386ZM22.2934 139.03H23.4972C24.2843 139.03 25.0248 138.165 25.0248 136.494C25.0248 134.909 24.284 134.016 23.4972 134.016H22.2934V139.03ZM33.7542 122.318H39.1707L43.1982 142.891H38.6147L38.175 139.289H34.7494L34.3099 142.891H29.7259L33.7542 122.318ZM36.4851 126.525H36.4392L35.2586 135.255H37.6657L36.4851 126.525Z" fill="#050505"/>
<path d="M123.693 70.3972L124.068 70.5847C130.694 71.2097 135.507 74.0222 138.508 79.0222C141.758 84.5222 143.383 93.1472 143.383 104.897V118.585C143.383 130.085 140.945 138.272 136.07 143.147C131.319 147.897 123.193 150.272 111.692 150.272H80V0.272217H111.692C132.819 0.272217 143.383 9.64722 143.383 28.3972V40.3972C143.383 48.6472 142.196 55.0222 139.82 59.5222C136.82 65.1472 131.444 68.7722 123.693 70.3972ZM102.878 15.4597V65.7097H110.004C117.005 65.7097 120.505 61.1472 120.505 52.0222V29.1472C120.505 20.0222 117.005 15.4597 110.004 15.4597H102.878ZM102.878 77.7097V135.085H110.004C117.005 135.085 120.505 131.335 120.505 123.835V88.9597C120.505 81.4597 117.005 77.7097 110.004 77.7097H102.878Z" fill="#5F5F5F"/>
<path d="M198.318 0.272217H220.633V125.71C220.633 134.085 217.758 140.272 212.007 144.272C206.381 148.272 198.943 150.272 189.691 150.272C182.19 150.272 175.815 148.96 170.564 146.335C162.563 142.21 158.562 135.335 158.562 125.71V0.272217H180.878V120.835C180.878 129.96 183.816 134.522 189.691 134.522C195.442 134.522 198.318 129.96 198.318 120.835V0.272217Z" fill="#5F5F5F"/>
<path d="M236.759 24.2722C236.759 14.8972 240.697 8.20971 248.573 4.20971C253.573 1.58471 259.762 0.272217 267.137 0.272217C274.513 0.272217 280.764 1.58471 285.89 4.20971C293.766 8.20971 297.704 14.8972 297.704 24.2722V49.3972H275.764V29.1472C275.764 20.1472 272.888 15.6472 267.137 15.6472C261.512 15.6472 258.699 20.1472 258.699 29.1472V121.397C258.699 130.397 261.512 134.897 267.137 134.897C272.888 134.897 275.764 130.397 275.764 121.397V94.9597H297.704V126.272C297.704 135.647 293.766 142.335 285.89 146.335C280.764 148.96 274.513 150.272 267.137 150.272C259.762 150.272 253.573 148.96 248.573 146.335C240.697 142.335 236.759 135.647 236.759 126.272V24.2722Z" fill="#5F5F5F"/>
<path d="M356.11 0.272217H378.051L352.735 61.5847L378.613 150.272H356.11L334.17 72.2722V150.272H311.292V0.272217H334.17V65.7097L356.11 0.272217Z" fill="#5F5F5F"/>
<path d="M391.686 0.272217H440.63V15.4597H414.564V58.7722H439.504V73.9597H414.564V135.085H440.63V150.272H391.686V0.272217Z" fill="#5F5F5F"/>
<path d="M452.851 0.272217H516.047V15.4597H495.794V150.272H473.103V15.4597H452.851V0.272217Z" fill="#5F5F5F"/>
<path d="M528.117 24.2722C528.117 14.8972 532.055 8.20971 539.931 4.20971C544.932 1.58471 551.12 0.272217 558.496 0.272217C567.622 0.272217 574.873 2.14721 580.249 5.89721C586.124 10.0222 589.062 16.1472 589.062 24.2722V50.1472H567.122V29.1472C567.122 20.1472 564.247 15.6472 558.496 15.6472C552.745 15.6472 549.932 20.2097 550.057 29.3347C550.182 38.7097 552.245 46.5847 556.246 52.9597C558.746 56.8347 563.121 61.5222 569.372 67.0222C576.248 72.8972 580.936 78.1472 583.437 82.7722C587.812 90.5222 590 100.647 590 113.147V126.272C590 134.397 587.062 140.522 581.186 144.647C575.936 148.397 568.747 150.272 559.621 150.272C552.245 150.272 545.994 148.96 540.869 146.335C532.993 142.335 529.055 135.647 529.055 126.272V94.9597H550.995V121.397C550.995 130.397 553.87 134.897 559.621 134.897C565.372 134.897 568.185 130.335 568.06 121.21C567.935 108.96 565.309 98.5847 560.184 90.0847C557.183 85.0847 551.87 79.1472 544.244 72.2722C538.618 67.1472 534.805 63.0847 532.805 60.0847C529.68 55.3347 528.117 49.7097 528.117 43.2097V24.2722Z" fill="#5F5F5F"/>
</svg>
