<svg width="30" height="30" viewBox="0 0 30 30" fill="none" xmlns="http://www.w3.org/2000/svg">
<g clip-path="url(#clip0_35_6)">
<path d="M14.942 0C6.69082 0 0 6.68965 0 14.942C0 21.5439 4.28133 27.1447 10.2183 29.1205C10.965 29.2588 11.2392 28.7964 11.2392 28.4017C11.2392 28.0454 11.2253 26.8683 11.2189 25.6198C7.06195 26.5236 6.1848 23.8568 6.1848 23.8568C5.50512 22.1297 4.52578 21.6705 4.52578 21.6705C3.17016 20.7431 4.62797 20.7621 4.62797 20.7621C6.12844 20.8676 6.91852 22.302 6.91852 22.302C8.25117 24.5863 10.414 23.9258 11.2666 23.5441C11.4007 22.5783 11.788 21.9192 12.2153 21.5461C8.89652 21.1682 5.40762 19.887 5.40762 14.1616C5.40762 12.5304 5.99133 11.1974 6.94723 10.151C6.79207 9.77461 6.28066 8.25492 7.09195 6.19676C7.09195 6.19676 8.34668 5.79516 11.2021 7.7284C12.3939 7.39723 13.6721 7.23129 14.942 7.22566C16.2118 7.23129 17.4911 7.39723 18.6852 7.7284C21.5372 5.79516 22.7902 6.19676 22.7902 6.19676C23.6034 8.25492 23.0918 9.77461 22.9366 10.151C23.8946 11.1974 24.4744 12.5303 24.4744 14.1616C24.4744 19.9005 20.9789 21.1643 17.6517 21.5341C18.1876 21.9979 18.6652 22.9072 18.6652 24.3012C18.6652 26.3004 18.6478 27.9095 18.6478 28.4017C18.6478 28.7993 18.9168 29.2652 19.6743 29.1185C25.6079 27.1405 29.8839 21.5416 29.8839 14.942C29.8839 6.68965 23.194 0 14.942 0Z" fill="#616161"/>
<path d="M5.59637 21.2852C5.56356 21.3594 5.4466 21.3817 5.34031 21.3308C5.23192 21.2821 5.17098 21.1808 5.20613 21.1063C5.23836 21.0299 5.35531 21.0086 5.46348 21.0599C5.57211 21.1085 5.63399 21.2107 5.59637 21.2852ZM6.33137 21.941C6.26012 22.0071 6.12078 21.9764 6.02621 21.872C5.92848 21.7678 5.9102 21.6286 5.9825 21.5614C6.05598 21.4955 6.1911 21.5263 6.28906 21.6306C6.3868 21.7359 6.40578 21.8743 6.33125 21.9411M6.83563 22.7801C6.74399 22.8437 6.59422 22.7841 6.50176 22.6512C6.41024 22.5184 6.41024 22.359 6.50375 22.2952C6.59656 22.2313 6.74399 22.2887 6.83774 22.4206C6.92914 22.5557 6.92914 22.715 6.83551 22.7802M7.68828 23.7519C7.60637 23.8422 7.43199 23.818 7.30426 23.6947C7.17371 23.5743 7.13727 23.4033 7.21942 23.3129C7.30227 23.2225 7.4777 23.2479 7.60637 23.3701C7.73609 23.4904 7.77559 23.6626 7.68828 23.7519ZM8.79031 24.08C8.75434 24.197 8.58629 24.2502 8.41707 24.2005C8.24809 24.1493 8.13746 24.0122 8.17156 23.8939C8.20672 23.7762 8.37547 23.7207 8.54598 23.7739C8.71473 23.8249 8.82547 23.961 8.79031 24.08ZM10.0447 24.2191C10.0489 24.3424 9.90535 24.4446 9.7277 24.4468C9.54899 24.4507 9.40449 24.351 9.40262 24.2298C9.40262 24.1054 9.54289 24.0041 9.72149 24.0012C9.89914 23.9977 10.0447 24.0967 10.0447 24.2191ZM11.2768 24.1719C11.2981 24.2922 11.1746 24.4157 10.9982 24.4485C10.8248 24.4801 10.6643 24.4059 10.6421 24.2868C10.6205 24.1635 10.7464 24.0401 10.9195 24.0081C11.0962 23.9774 11.2543 24.0497 11.2768 24.1719Z" fill="#616161"/>
</g>
<defs>
<clipPath id="clip0_35_6">
<rect width="30" height="29.184" fill="white"/>
</clipPath>
</defs>
</svg>
