<svg width="30" height="30" viewBox="0 0 30 30" fill="none" xmlns="http://www.w3.org/2000/svg">
<g clip-path="url(#clip0_35_2)">
<path d="M10.0008 15.0001C10.0008 12.2388 12.2387 9.99972 15 9.99972C17.7613 9.99972 20.0004 12.2388 20.0004 15.0001C20.0004 17.7614 17.7613 20.0005 15 20.0005C12.2387 20.0005 10.0008 17.7614 10.0008 15.0001ZM7.29766 15.0001C7.29766 19.2542 10.746 22.7025 15 22.7025C19.254 22.7025 22.7023 19.2542 22.7023 15.0001C22.7023 10.7461 19.254 7.29778 15 7.29778C10.746 7.29778 7.29766 10.7461 7.29766 15.0001ZM21.2072 6.99245C21.2072 7.98599 22.0129 8.79293 23.0077 8.79293C24.0012 8.79293 24.8082 7.98599 24.8082 6.99245C24.8082 5.99891 24.0024 5.19318 23.0077 5.19318C22.0129 5.19318 21.2072 5.99891 21.2072 6.99245ZM8.93942 27.2097C7.47698 27.1431 6.68215 26.8996 6.15388 26.6936C5.45355 26.421 4.95436 26.0962 4.42851 25.5716C3.90388 25.047 3.57795 24.5478 3.30654 23.8475C3.10057 23.3192 2.85703 22.5244 2.79039 21.0619C2.71769 19.4807 2.70315 19.0058 2.70315 15.0001C2.70315 10.9945 2.7189 10.5207 2.79039 8.93833C2.85703 7.47589 3.10178 6.68227 3.30654 6.15279C3.57916 5.45246 3.90388 4.95327 4.42851 4.42742C4.95315 3.90279 5.45234 3.57686 6.15388 3.30545C6.68215 3.09948 7.47698 2.85594 8.93942 2.7893C10.5206 2.7166 10.9956 2.70206 15 2.70206C19.0057 2.70206 19.4794 2.71781 21.0618 2.7893C22.5242 2.85594 23.3179 3.10069 23.8473 3.30545C24.5477 3.57686 25.0469 3.90279 25.5727 4.42742C26.0973 4.95206 26.4221 5.45246 26.6947 6.15279C26.9006 6.68106 27.1442 7.47589 27.2108 8.93833C27.2835 10.5207 27.2981 10.9945 27.2981 15.0001C27.2981 19.0046 27.2835 19.4795 27.2108 21.0619C27.1442 22.5244 26.8994 23.3192 26.6947 23.8475C26.4221 24.5478 26.0973 25.047 25.5727 25.5716C25.0481 26.0962 24.5477 26.421 23.8473 26.6936C23.3191 26.8996 22.5242 27.1431 21.0618 27.2097C19.4806 27.2824 19.0057 27.297 15 27.297C10.9956 27.297 10.5206 27.2824 8.93942 27.2097ZM8.81583 0.0909944C7.2189 0.163692 6.12843 0.416923 5.17488 0.787683C4.18861 1.17056 3.35259 1.68429 2.51777 2.51789C1.68417 3.3515 1.17044 4.18752 0.787561 5.175C0.416801 6.12856 0.16357 7.21902 0.0908724 8.81595C0.0169628 10.4153 0 10.9266 0 15.0001C0 19.0736 0.0169628 19.5849 0.0908724 21.1843C0.16357 22.7812 0.416801 23.8717 0.787561 24.8252C1.17044 25.8115 1.68296 26.6487 2.51777 27.4824C3.35137 28.316 4.1874 28.8285 5.17488 29.2126C6.12965 29.5833 7.2189 29.8366 8.81583 29.9093C10.4164 29.9819 10.9265 30.0001 15 30.0001C19.0747 30.0001 19.5848 29.9832 21.1842 29.9093C22.7811 29.8366 23.8716 29.5833 24.8251 29.2126C25.8114 28.8285 26.6474 28.316 27.4822 27.4824C28.3158 26.6487 28.8284 25.8115 29.2124 24.8252C29.5832 23.8717 29.8376 22.7812 29.9091 21.1843C29.9818 19.5837 29.9988 19.0736 29.9988 15.0001C29.9988 10.9266 29.9818 10.4153 29.9091 8.81595C29.8364 7.21902 29.5832 6.12856 29.2124 5.175C28.8284 4.18873 28.3158 3.35271 27.4822 2.51789C26.6486 1.68429 25.8114 1.17056 24.8263 0.787683C23.8716 0.416923 22.7811 0.162481 21.1854 0.0909944C19.586 0.0182965 19.0747 0.00012207 15.0012 0.00012207C10.9265 0.00012207 10.4164 0.0170849 8.81583 0.0909944Z" fill="#616161"/>
</g>
<defs>
<clipPath id="clip0_35_2">
<rect width="30" height="30" fill="white"/>
</clipPath>
</defs>
</svg>
