<svg width="22" height="32" viewBox="0 0 22 32" fill="none" xmlns="http://www.w3.org/2000/svg">
<path d="M13.2 -6.10352e-05H8.8C6.46688 0.0025859 4.23004 0.966698 2.58027 2.68074C0.930506 4.39479 0.00254768 6.71877 0 9.1428V22.8571C0.00254768 25.2811 0.930506 27.6051 2.58027 29.3191C4.23004 31.0332 6.46688 31.9973 8.8 31.9999H13.2C15.5331 31.9973 17.77 31.0332 19.4197 29.3191C21.0695 27.6051 21.9975 25.2811 22 22.8571V9.1428C21.9975 6.71877 21.0695 4.39479 19.4197 2.68074C17.77 0.966698 15.5331 0.0025859 13.2 -6.10352e-05ZM19.8 22.8571C19.7982 24.6751 19.1022 26.4182 17.8649 27.7037C16.6276 28.9893 14.9499 29.7123 13.2 29.7142H8.8C7.05013 29.7123 5.37245 28.9893 4.13511 27.7037C2.89776 26.4182 2.20182 24.6751 2.2 22.8571V9.1428C2.20182 7.32475 2.89776 5.58171 4.13511 4.29615C5.37245 3.0106 7.05013 2.28754 8.8 2.28565H13.2C14.9499 2.28754 16.6276 3.0106 17.8649 4.29615C19.1022 5.58171 19.7982 7.32475 19.8 9.1428V22.8571ZM12.1 6.85708V13.7142C12.1 14.0173 11.9841 14.308 11.7778 14.5223C11.5715 14.7367 11.2917 14.8571 11 14.8571C10.7083 14.8571 10.4285 14.7367 10.2222 14.5223C10.0159 14.308 9.9 14.0173 9.9 13.7142V6.85708C9.9 6.55398 10.0159 6.26329 10.2222 6.04896C10.4285 5.83463 10.7083 5.71422 11 5.71422C11.2917 5.71422 11.5715 5.83463 11.7778 6.04896C11.9841 6.26329 12.1 6.55398 12.1 6.85708Z" fill="#616161"/>
</svg>
