<svg width="30" height="30" viewBox="0 0 30 30" fill="none" xmlns="http://www.w3.org/2000/svg">
<path d="M30 5.6961C28.8967 6.18494 27.7116 6.51524 26.4657 6.66454C27.7367 5.90353 28.7118 4.69588 29.1716 3.25838C27.9824 3.96395 26.6652 4.47656 25.2634 4.75137C24.1403 3.55703 22.5416 2.8092 20.7711 2.8092C17.3729 2.8092 14.6169 5.56528 14.6169 8.96615C14.617 9.43746 14.6702 9.90727 14.7754 10.3667C9.65826 10.109 5.12507 7.6581 2.08888 3.93488C1.56044 4.84653 1.25649 5.90354 1.25649 7.02921C1.25649 9.16428 2.34392 11.0497 3.9941 12.153C3.01675 12.1219 2.06097 11.8578 1.2063 11.3827V11.4619C1.2063 14.4439 3.32689 16.9319 6.14376 17.4974C5.61519 17.64 5.07007 17.7119 4.5226 17.7114C4.13383 17.7117 3.74589 17.6754 3.36391 17.6031C4.14739 20.0473 6.41993 21.8284 9.11393 21.8759C7.00651 23.5274 4.35218 24.5118 1.46922 24.5118C0.972441 24.5118 0.482248 24.4827 0 24.4258C2.72442 26.174 5.95881 27.1912 9.43364 27.1912C20.7566 27.1912 26.9466 17.8131 26.9466 9.6796C26.9466 9.41538 26.94 9.14845 26.9281 8.88423C28.1304 8.01483 29.1742 6.93276 29.9973 5.70004L30 5.6961Z" fill="#616161"/>
</svg>
